<svg xmlns="http://www.w3.org/2000/svg" width="19.787" height="19.937" viewBox="0 0 19.787 19.937">
  <g id="Path_1423" data-name="Path 1423" transform="translate(-10.098 -22.566)" fill="none">
    <path d="M20.11,22.567a9.661,9.661,0,0,1,9.769,9.545c.2,6.089-5.646,10.329-9.769,10.39S9.93,38.315,10.1,32.112,15.455,22.635,20.11,22.567Z" stroke="none"/>
    <path d="M 20.24207305908203 23.56605911254883 C 20.20313262939453 23.56605911254883 20.16388320922852 23.56633758544922 20.12487411499023 23.56690979003906 C 17.92263412475586 23.59889984130859 15.71535301208496 24.41407775878906 14.06900405883789 25.80340957641602 C 12.76418304443359 26.904541015625 11.19003295898438 28.89770126342773 11.10069274902344 32.13990783691406 C 11.01983261108398 35.07440948486328 12.47373390197754 37.20233917236328 13.70764350891113 38.47071075439453 C 15.49957275390625 40.31269073486328 17.97835350036621 41.50289916992188 20.02264404296875 41.50289916992188 C 20.04684257507324 41.50289916992188 20.07146263122559 41.50273132324219 20.09561347961426 41.50236892700195 C 22.14234352111816 41.47219848632812 24.60040283203125 40.26126861572266 26.35782241821289 38.41738128662109 C 27.56159210205078 37.15438842773438 28.97631454467773 35.04106903076172 28.87994384765625 32.1456298828125 C 28.77313232421875 28.93647766113281 27.27990341186523 26.93413925170898 26.04604339599609 25.81948089599609 C 24.4608039855957 24.38739776611328 22.3453426361084 23.56605911254883 20.24207305908203 23.56605911254883 M 20.24206924438477 22.56606292724609 C 24.85791397094727 22.56606292724609 29.67865753173828 26.08097076416016 29.87939453125 32.11236953735352 C 30.08203315734863 38.20098876953125 24.23388290405273 42.44146728515625 20.11035346984863 42.50225830078125 C 15.98664855957031 42.56296920776367 9.930173873901367 38.314697265625 10.10107421875 32.11236953735352 C 10.27197265625 25.91003036499023 15.45507431030273 22.63463973999023 20.11035346984863 22.56702041625977 C 20.15410995483398 22.56638336181641 20.19827079772949 22.56606292724609 20.24206924438477 22.56606292724609 Z" stroke="none" fill="#e7b197"/>
  </g>
</svg>
