<svg xmlns="http://www.w3.org/2000/svg" width="414.733" height="1171.68" viewBox="0 0 414.733 1171.68">
  <g id="Group_181" data-name="Group 181" transform="translate(-788.596 36.04)">
    <path id="Path_1433" data-name="Path 1433" d="M6822.781-522.782s192.872,86.885,341.174-50.859,201.562-188.886,437.422-90.586,337.837-51.732,337.837-51.732" transform="translate(1611.737 7914.738) rotate(-90)" fill="none" stroke="#f2b99d" stroke-width="1"/>
    <path id="Path_1434" data-name="Path 1434" d="M-16.354-81.71S110.806,139.112,313.2.167,692.5-46.459,838.26,121.979s293.583,96.488,293.583,96.488" transform="matrix(-0.087, -0.996, 0.996, -0.087, 968.776, 1112)" fill="none" stroke="#f2b99d" stroke-width="0.5"/>
    <path id="Path_1434-2" data-name="Path 1434" d="M46.821,87.68S241.685-85.668,412.59,46.95s465.77,54.779,540.227-54.108,199.766,25.09,199.766,25.09" transform="matrix(-0.087, 0.996, -0.996, -0.087, 1110.828, -48.036)" fill="none" stroke="#f2b99d" stroke-width="0.5"/>
  </g>
</svg>
