<svg xmlns="http://www.w3.org/2000/svg" width="366.018" height="102.249" viewBox="0 0 366.018 102.249">
  <g id="Group_164" data-name="Group 164" transform="translate(-646.491 -24.751)">
    <g id="Group_14" data-name="Group 14" transform="translate(776.318 29.884)">
      <g id="Path_1420" data-name="Path 1420" transform="translate(10.268 4.228)" fill="none">
        <path d="M38.381,0A38.381,38.381,0,1,1,1.145,47.725,37.86,37.86,0,0,1,0,38.381,38.381,38.381,0,0,1,38.381,0Z" stroke="none"/>
        <path d="M 38.38104248046875 1.999992370605469 C 33.46875 1.999992370605469 28.70445251464844 2.961631774902344 24.22051239013672 4.858169555664062 C 19.88851165771484 6.690452575683594 15.9975700378418 9.313934326171875 12.65576171875 12.65576171875 C 9.313934326171875 15.9975700378418 6.690452575683594 19.88851165771484 4.858169555664062 24.22051239013672 C 2.961631774902344 28.70445251464844 1.999992370605469 33.46875 1.999992370605469 38.38104248046875 C 1.999992370605469 41.43412399291992 2.373970031738281 44.49181747436523 3.081748962402344 47.22447967529297 C 4.099617004394531 51.16221618652344 5.740463256835938 54.87670135498047 7.958702087402344 58.26476287841797 C 10.13827514648438 61.59378433227539 12.82102966308594 64.52711486816406 15.93241882324219 66.98326873779297 C 19.06753540039062 69.45814514160156 22.55624389648438 71.38326263427734 26.30160903930664 72.70512390136719 C 30.16888809204102 74.07002258300781 34.23299407958984 74.76207733154297 38.38104248046875 74.76207733154297 C 43.2933349609375 74.76207733154297 48.05763244628906 73.80044555664062 52.54157257080078 71.90390014648438 C 56.87355804443359 70.07161712646484 60.76451110839844 67.44813537597656 64.1063232421875 64.1063232421875 C 67.44813537597656 60.76451110839844 70.07161712646484 56.87355804443359 71.90390014648438 52.54157257080078 C 73.80044555664062 48.05763244628906 74.76207733154297 43.2933349609375 74.76207733154297 38.38104248046875 C 74.76207733154297 33.46875 73.80044555664062 28.70445251464844 71.90390014648438 24.22051239013672 C 70.07161712646484 19.88851165771484 67.44813537597656 15.9975700378418 64.1063232421875 12.65576171875 C 60.76450347900391 9.313934326171875 56.87355804443359 6.690452575683594 52.54157257080078 4.858169555664062 C 48.05763244628906 2.961631774902344 43.2933349609375 1.999992370605469 38.38104248046875 1.999992370605469 M 38.38104248046875 -7.62939453125e-06 C 59.57831573486328 -7.62939453125e-06 76.76207733154297 17.18377304077148 76.76207733154297 38.38104248046875 C 76.76207733154297 59.57831573486328 59.57831573486328 76.76207733154297 38.38104248046875 76.76207733154297 C 20.51174926757812 76.76207733154297 5.49462890625 64.55045318603516 1.145393371582031 47.72500610351562 C 0.4235610961914062 44.93805694580078 -7.62939453125e-06 41.70901870727539 -7.62939453125e-06 38.38104248046875 C -7.62939453125e-06 17.18377304077148 17.18377304077148 -7.62939453125e-06 38.38104248046875 -7.62939453125e-06 Z" stroke="none" fill="#f8bea1"/>
      </g>
      <rect id="Rectangle_11" data-name="Rectangle 11" width="97" height="42" transform="translate(-0.356 0.116)" fill="#14181b"/>
      <rect id="Rectangle_12" data-name="Rectangle 12" width="97" height="42" transform="translate(90.644 0.116) rotate(90)" fill="#14181b"/>
    </g>
    <g id="Group_15" data-name="Group 15" transform="translate(882.624 109.179) rotate(-180)">
      <g id="Ellipse_14" data-name="Ellipse 14" transform="translate(10.268 4.228)" fill="none" stroke="#f8bea1" stroke-width="2">
        <circle cx="38.381" cy="38.381" r="38.381" stroke="none"/>
        <circle cx="38.381" cy="38.381" r="37.381" fill="none"/>
      </g>
      <path id="Path_8" data-name="Path 8" d="M0,0H48.736l23.64,42.281H0Z" transform="translate(0 0)" fill="#14181b"/>
      <path id="Path_9" data-name="Path 9" d="M23.056,5.733c24.16-10.57,56.5-3.287,56.5-3.287L81.1,42.61.008,43.259S-1.1,16.3,23.056,5.733Z" transform="translate(90.931 3.328) rotate(90)" fill="#14181b"/>
    </g>
    <g id="Group_2" data-name="Group 2" transform="translate(795.646 35.924)">
      <text id="R" transform="translate(16.472 43.74)" fill="#f8bea1" font-size="29" font-family="Montez-Regular, Montez"><tspan x="0" y="0">R</tspan></text>
      <text id="T" transform="translate(29.876 33.603)" fill="#f8bea1" font-size="29" font-family="Montez-Regular, Montez"><tspan x="0" y="0">T</tspan></text>
      <g id="Ellipse_1" data-name="Ellipse 1" transform="translate(0 0)" fill="none" stroke="#f8bea1" stroke-width="2">
        <circle cx="32.945" cy="32.945" r="32.945" stroke="none"/>
        <circle cx="32.945" cy="32.945" r="31.945" fill="none"/>
      </g>
      <g id="Rectangle_9" data-name="Rectangle 9" transform="matrix(0.966, -0.259, 0.259, 0.966, 47.087, 41.694)" fill="#14181b" stroke="#f8bea1" stroke-width="1">
        <rect width="18.097" height="18.097" stroke="none"/>
        <rect x="0.5" y="0.5" width="17.097" height="17.097" fill="none"/>
      </g>
      <g id="Path_1" data-name="Path 1" transform="matrix(-0.309, -0.951, 0.951, -0.309, 56.684, 32.904)" fill="#14181b">
        <path d="M 12.71438407897949 12.71438407897949 L 1.207103967666626 12.71438407897949 L 12.71438407897949 1.207103967666626 L 12.71438407897949 12.71438407897949 Z" stroke="none"/>
        <path d="M 12.21438407897949 2.414223670959473 L 2.414223670959473 12.21438407897949 L 12.21438407897949 12.21438407897949 L 12.21438407897949 2.414223670959473 M 13.21438407897949 3.814697265625e-06 L 13.21438407897949 13.21438407897949 L 3.814697265625e-06 13.21438407897949 L 13.21438407897949 3.814697265625e-06 Z" stroke="none" fill="#f8bea1"/>
      </g>
      <g id="Rectangle_10" data-name="Rectangle 10" transform="translate(55.173 9.744) rotate(5)" fill="#f8bea1" stroke="#14181b" stroke-width="1">
        <rect width="5.171" height="5.171" stroke="none"/>
        <rect x="0.5" y="0.5" width="4.171" height="4.171" fill="none"/>
      </g>
      <g id="Path_2" data-name="Path 2" transform="matrix(-0.309, -0.951, 0.951, -0.309, 52.366, 47.905)" fill="#f8bea1">
        <path d="M 9.200294494628906 9.200294494628906 L 1.207104921340942 9.200294494628906 L 9.200294494628906 1.207104921340942 L 9.200294494628906 9.200294494628906 Z" stroke="none"/>
        <path d="M 8.700284957885742 2.414215087890625 L 2.414215087890625 8.700284957885742 L 8.700284957885742 8.700284957885742 L 8.700284957885742 2.414215087890625 M 9.700284957885742 -4.76837158203125e-06 L 9.700284957885742 9.700284957885742 L -4.76837158203125e-06 9.700284957885742 L 9.700284957885742 -4.76837158203125e-06 Z" stroke="none" fill="#14181b"/>
      </g>
      <g id="Ellipse_2" data-name="Ellipse 2" transform="translate(7.603 2.534)" fill="#14181b" stroke="#f8bea1" stroke-width="1">
        <circle cx="5.702" cy="5.702" r="5.702" stroke="none"/>
        <circle cx="5.702" cy="5.702" r="5.202" fill="none"/>
      </g>
      <g id="Ellipse_3" data-name="Ellipse 3" transform="translate(2.534 13.938)" fill="#f8bea1" stroke="#14181b" stroke-width="1">
        <circle cx="2.534" cy="2.534" r="2.534" stroke="none"/>
        <circle cx="2.534" cy="2.534" r="2.034" fill="none"/>
      </g>
    </g>
    <path id="Path_7" data-name="Path 7" d="M3579.65,62.272H3437.529" transform="translate(-2791.038 10.221)" fill="none" stroke="#f8bea1" stroke-width="2"/>
    <path id="Path_10" data-name="Path 10" d="M3580.063,62.272h-6.885l-135.346-.062" transform="translate(-2567.554 4.693)" fill="none" stroke="#f8bea1" stroke-width="2"/>
  </g>
</svg>
