<svg xmlns="http://www.w3.org/2000/svg" viewBox="0 0 482.502 902.645">
  <g id="Group_152" data-name="Group 152" transform="translate(0)" opacity="0.134">
    <g id="Group_151" data-name="Group 151" transform="translate(0)">
      <path id="Path_857" data-name="Path 857" d="M798.678,2316.084l.64,5.522,5.887-16.79-4.859-7.025Z" transform="translate(-729.512 -1997.131)" fill="#faf0d4"/>
      <path id="Path_861" data-name="Path 861" d="M267.67,4036.42l-2.134-2.931s4.044-47.623,0-80.6-57.141-101.9-43.943-183.069,86.871-138.754,108.1-148.425,90.391-26.977,165.86,2.082,102.084,46.056,124.026,79.739,26.98,73.754,30.689,85.848,18.971,29.133,19.436,33.583c.4,3.788-6.542,11.3-9.538,13.814a9.159,9.159,0,0,1-1.865.733,1.327,1.327,0,0,0,.385-1.1c-.057-.684-.039-2-1.724-1.827a38.5,38.5,0,0,0-6.117,1.712,5.793,5.793,0,0,1-3.161-.224,6.955,6.955,0,0,0,2.711-2.038c3.8-4.34,12-13.219,12.052-15.425.071-2.922-12.192-18.566-14.78-28.07s-9.847-60.134-33.553-88.766-37.871-40.728-80.932-60.818-142.941-52.255-207.018-13.863S216.9,3754.816,221.593,3807.966s41.187,112.565,46.077,141.789S267.67,4036.42,267.67,4036.42Z" transform="translate(-209.105 -3607.394)" fill="#faf0d4"/>
      <path id="Path_862" data-name="Path 862" d="M372.636,3921.2s-.619-2.421-2.883-2.177-3.546,3.312-5.764,3.42-3.579-3.537-8.078-2.5-6.569-1.568-10.77-1.352-1.689,1.422-8.734,0-10.747-3.948-19.309-5.255-6.887.694-12.358,1.091-4.232-.954-9.928,0a33.668,33.668,0,0,0-11.184,4.6s21.614-16.861,30.653-19.077,12.277.034,22.127,1.115,11.362,1.406,17.273,3.206,6.272,3.881,7.591,3.662,1.889-2.757,1.889-2.757a63,63,0,0,1,7.376,8.983C373.409,3918.645,372.636,3921.2,372.636,3921.2Z" transform="translate(45.261 -3705.2)" fill="#faf0d4"/>
      <path id="Path_863" data-name="Path 863" d="M730.587,3958.425c-1.693-.148-19.858-20.426-35.669-24.92s-26.07,5.846-28.785,8.829-15.682,21.08-15.6,38.356-2.647,21.517,10.764,44.245,29.68,36.948,42.741,47.742,21.72,7.39,28.527,5.871,8.891-6.129,9.74-5.475-.214,6.6,1.03,16.975-1.728,4.565-5.572-.912-15.079-1.9-23.592-6.926-30.8-20.828-47.623-44.187S648.37,3997.8,649.054,3983.8s7.451-32.462,10.331-37.624,16.263-18.858,32.8-15.8,37.337,22.7,38.4,23.9S732.28,3958.572,730.587,3958.425Z" transform="translate(-568.396 -3715.575)" fill="#faf0d4"/>
      <path id="Path_864" data-name="Path 864" d="M672.218,4008.857s-.741,10.822-2.426,17.367-4.943,10.927-1,17.132,10.1,11.427,12.117,17.4-5.16,6.308-5.16,6.308,2.461-.458,3.251-2.181.772-2.687-.124-4.657c-2.9-6.374-10.547-8.718-13.252-17.352s.431-10.11,2.791-16.655S672.218,4008.857,672.218,4008.857Z" transform="translate(-516.447 -3742.047)" fill="#faf0d4"/>
      <path id="Path_865" data-name="Path 865" d="M797.17,4014.409s-4.654,3.827-6.933,1.467-3.565-5.323-1.263-12.417,10.469-15.957,10.469-15.957-.536,4.318-1.427,11.371A140.753,140.753,0,0,0,797.17,4014.409Z" transform="translate(-716.495 -3734.885)" fill="#faf0d4"/>
      <path id="Subtraction_1" data-name="Subtraction 1" d="M94.475,0A24.142,24.142,0,0,0,83.653,2.726a16.462,16.462,0,0,0-4.229,3.18,33.591,33.591,0,0,0-4.1,5.232c-2.522,3.851-5.335,9.208-9.405,17.912a79.193,79.193,0,0,0-6.093,20.434,106.068,106.068,0,0,0-1.332,12.783c-.022.468-.035.751-.05.829-.153.8-1.287,2-3.98,2.733a17.832,17.832,0,0,1-4.422.576c-1.463,0-2.461-.215-2.669-.576s.375-1.638,1-2.977c.644-1.379,1.309-2.8,1.179-3.42-.253-1.2-8.412-11.16-8.495-11.26a55.04,55.04,0,0,1-1.178,6.11,41.352,41.352,0,0,1-4.6,11.548c-4.8,7.621-7.808,12.367-9.226,13.853-.862.9-3.937,1.222-6.309,1.222-2.091,0-3.8-.233-4.255-.58-1.719-1.313-2.983-5.038-3.757-11.072a62.385,62.385,0,0,1-.414-12.177A97.739,97.739,0,0,1,13.7,41.753a63.266,63.266,0,0,1,5.5-14.871,52.328,52.328,0,0,1,3.453-5.833L18.905,15.3a.086.086,0,0,0-.011.018c-.262.459-1.211,2.159-2.444,4.771A96.693,96.693,0,0,0,11.7,32.212,163.355,163.355,0,0,0,7.09,52.1v.007c-.184,1.027-.329,1.838-.433,2.322a19.141,19.141,0,0,1-2.464,4.609A33.327,33.327,0,0,0,.223,66.678a4.218,4.218,0,0,0,1.3,4.65A8.875,8.875,0,0,0,4.454,72.96l.006,0L4.565,73a3.691,3.691,0,0,1,.509,1.222,28.543,28.543,0,0,0,2.07,4.909,13.266,13.266,0,0,0,4.583,5.038,20.935,20.935,0,0,0,10.451,2.567,19.451,19.451,0,0,0,1.966-.087c.011,0,1.2.061,2.75.061,2.667,0,6.075-.174,7.165-1,1.831-1.392,5.824-6.045,6.474-7.544.611-1.413.065-2.05.005-2.114l0,0a12.639,12.639,0,0,0,2.171,1.208,17.421,17.421,0,0,0,5.96,1.453c.188.012.382.018.575.018A16.35,16.35,0,0,0,56.2,76.863,26.241,26.241,0,0,0,59.485,75v.01a39.91,39.91,0,0,0,1.507,6.4,33.873,33.873,0,0,0,2.379,5.681,20.8,20.8,0,0,0,3.9,5.259,22.3,22.3,0,0,0,9.5,5.483A38.8,38.8,0,0,0,85.6,98.98c1.232.06,2.337.089,3.378.089a61.494,61.494,0,0,0,14.852-1.975,46.742,46.742,0,0,0,9.72-3.49,32.583,32.583,0,0,0,3.671-2.062l2.181-2.409c.25,0,29.849-.11,64.613-.11,20.559,0,39.03.037,54.9.11,53.28.245,95.307.982,95.725.99l-10.064-8.778h-.023c-2.215-.071-54.773-1.748-101.217-2.713-29.128-.606-56.449-.863-72.773-1.016-10.84-.1-17.383-.163-17.6-.255A20.124,20.124,0,0,1,127.69,73.6c-1.078-1.276-2.749-4.458-2.812-6.345-.011-.339,0-1.187.023-2.471v0h0c.048-3.043.129-8.137.008-13.939A156.28,156.28,0,0,0,123.7,33.115c-.927-6.652-2.431-11.511-4.876-15.758a35.831,35.831,0,0,0-4.36-5.966,68.654,68.654,0,0,0-5.958-5.82A20.806,20.806,0,0,0,94.475,0ZM84.705,93.817c-5.99,0-10.77-1.621-14.208-4.816a19.612,19.612,0,0,1-4.9-7.767c-.735-1.956-.935-9.157-.5-17.918.472-9.473,1.517-17.856,2.795-22.424.77-2.752,1.734-6.06,3.046-9.737a80.313,80.313,0,0,1,5.3-11.987C81.592,9.57,87.9,4.7,95,4.7a16.385,16.385,0,0,1,2.447.188,11.188,11.188,0,0,1,6.073,3.162,23.855,23.855,0,0,1,4.644,6.659c2.389,4.81,4.314,11.311,5.722,19.321,2.5,14.217,2.555,28.591,2.231,31.213a28.936,28.936,0,0,1-4.049,10.912c-.151.263-.281.49-.39.688A38.007,38.007,0,0,1,104.8,85.6a31.7,31.7,0,0,1-7.558,5.353,26.644,26.644,0,0,1-10.356,2.795C86.145,93.794,85.412,93.817,84.705,93.817Z" transform="translate(482.502 316.344) rotate(180)" fill="#faf0d4" opacity="0.997"/>
      <path id="Path_868" data-name="Path 868" d="M218.167,3984.631s18.688,27.4,33.36,46.9,23.234,23.67,20.235,37.693-30.965,20.9-30.965,20.9l3.946,5.9s-1.6-3.663-9.982-5.9-26.571-3.05-32.9,0-16.1-5.952-14.669-15.731,5.785-14.562,14.669-20.64,20.867-3.678,20.867-3.678-16.176-.013-23.9,6.888-7.656,11.476-7.92,18.744,5.968,10.544,8.92,12.3,4.791-.349,13.524-.166,21.408.9,21.408.9,2.87,2.407,3.514,2.225-1.911-1.487-.937-2.955,29.931-7.519,31.783-22.044-7.766-16.047-21.555-35.442S218.167,3984.631,218.167,3984.631Z" transform="translate(209.818 -3733.922)" fill="#faf0d4"/>
      <path id="Path_869" data-name="Path 869" d="M225.657,4130.346c-.269-.639,8.023-7.343,19-9.377,5.687-1.053,8.758-1.151,15.644,0s9.3.719,9.744,1.244c.913,1.091-1.035,1.691-1.483,2.213s-17.687,1.667-18.351.539,15.009-1.914,13.631-2.211a48.428,48.428,0,0,0-11.9,0c-2.166.252-5.3,1.7-7.855,2.211-8.6,1.732-14.083,4.686-15.374,4.9S225.927,4130.985,225.657,4130.346Z" transform="translate(186.234 -3779.374)" fill="#faf0d4"/>
      <path id="Path_870" data-name="Path 870" d="M355.7,4143.4c1.181.407,7.169.374,11.019,6.561s7.379,7.55,9.536,15.306a26.255,26.255,0,0,1-.738,15.068,5.859,5.859,0,0,0-.522-2.675,16.354,16.354,0,0,0-1.274-2.074,45.37,45.37,0,0,1,.937,6.152,11.848,11.848,0,0,1-1.34,5.657,3.312,3.312,0,0,0-.177-2.756,4.732,4.732,0,0,1-.934-1.657s-.424,8.035-5.408,13.25-14.529,7.607-14.529,7.607a12.52,12.52,0,0,0-1.59-7.018c-1.989-3.329-2.951-5.735-4.707-6.035s-8.169,1.509-8.169,1.509,3.653-1.568,1.317-1.509-24.135,6.062-21.623,3.438-9.216,1.959-9.216,1.959,2.255-3.709.581-2.543-3.336.313-8.741,2.543a75.384,75.384,0,0,0-12.786,6.965c-3.7,2.446-4.052,3.95-10.08,6.38s-14.224,2.985-14.224,2.985a8.057,8.057,0,0,1,1.184.7,7.344,7.344,0,0,0,2.463.732,54.792,54.792,0,0,1-15.977-1.912c-8.247-2.334-7.462-3.7-17.009-7.425s-10.858-11.976-10.858-11.976,1.639,3.326,3.54,3.979a9.562,9.562,0,0,0,3.811.417,10.813,10.813,0,0,1-7.055-5.647c-2.512-4.835-11.006-15.333-11.006-15.333s17.824,17.321,28.717,16.189,13.034-8.37,19.213-15.612c2.5-2.933,6.153-5.431,9.174-8.262a61.635,61.635,0,0,0,6.9-7.7s-2.554,3.794-3.682,6.007a35.786,35.786,0,0,0-1.685,3.765s6.628-5.326,12.634-9.772a27.185,27.185,0,0,1,11.613-5.136,15.154,15.154,0,0,0-3.89,3.059c-1.127,1.523-.9,1.42-.9,1.42a25.117,25.117,0,0,0,5.4-2.7,24.013,24.013,0,0,0,4.923-3.976,6.8,6.8,0,0,1-1.318,3.288,14.45,14.45,0,0,0-1.581,2.429,48.892,48.892,0,0,1,11.223-5.936c5.135-1.861,13.677-2.268,14.537-2.352a10.162,10.162,0,0,0,3.42-1.194c.889-.646-4.45-.565-4.45-.565s5.744-1.166,6.915-1.812a26.844,26.844,0,0,1,5.629-1.92c5.538-.986,8.533.217,10.636,1.551s3.772,6.163,3.772,6.163-1.25-4.6,0-5.271a13.988,13.988,0,0,1,5.023-1.534C356.658,4145.984,355.095,4143.2,355.7,4143.4Z" transform="translate(88.461 -3787.171)" fill="#faf0d4" opacity="0.997"/>
      <path id="Subtraction_5" data-name="Subtraction 5" d="M289.655,322.836c-2.916-15.837-.445-26.692-3.029-35.774s0-21.034,0-21.034-1.5,8.576-2.63,5.613-1.434-19.687,2.63-45.342,5.7-45.739,5.7-45.739-3.4,4.663-5.525,1.408c-.853-1.305-1.238-9.6-5.584-19.212-6.345-14.04-17.526-29.875-17.526-29.875s3.009,8,3.009,11-1.312.657-1.312.657.639,3.011,1.312,5.609-.616,3.423-2.693-.645-4.539-13.7-8.293-20.615c-7.746-14.267-19.727-27.33-19.727-27.33l.857,11.494s-2.058-13.929-13.469-19.932-14.079-16.008-14.079-16.008.717,2.7-3.457,5.637-2.766,4.51-2.766,4.51-1.081-8.307-14.423-16.3S161.3,46.847,161.3,46.847s-5.45-.028-8.352-.246-4.167-7.045-4.167-7.045,1.931,8.247-2.761,7.045-18.334-11.7-18.334-11.7-4.892,3.363-6.915,2.811-12.255-13.189-12.255-13.189,2.949,8.071,0,7.769-6.733-6.254-6.733-6.254.336,4.076-2.218,3.7-8-5.212-8-5.212,1.223,3.495-3.881,1.515-8.3-10.919-8.3-10.919-3.051,6.926-5.185,6.556-4.473-6.556-7.62-6.556S57.737,9.3,57.737,9.3s-1.748,1.409-6.362,2.335S39.453,3.022,39.453,3.022s2.217,9.515-5.182,8.617S21.782,0,21.782,0s-3.687,3.8-3.343,13.1-1.315,14.8-1.315,14.8V18.387S14.288,28.908,11.752,29.46,10.6,23.8,10.6,23.8,6.186,29.83,8.268,34.266,4.835,32.3,4.835,32.3s2.307,10.738-.512,12.01S.831,41.5.831,41.5a152.385,152.385,0,0,0,0,31.377c1.869,15.356,8.227,26,7.476,30.048-1.687,9.105-5.968-5.676-5.968-5.676s3.223,12.073,3.223,14.542-3.223-4.664-3.223-4.664S8.829,121.638,9.086,124.9s-5.717-4.716-5.717-4.716a62.716,62.716,0,0,0,11.647,23.779c9.355,12.051,17.541,26.2,16.926,26.463-.413.18-1.7-2.131-1.7-2.131s-3.324,18.873,1.7,21.034,16.27-.45,22.919-3.737,10.813-2.5,14.911-2.241,14.515-1.5,11.793-6.047,6.238-1.686,11.675-1.092a27.187,27.187,0,0,1,10.072,3.469s4.147-2.116,2.94,0,5.38,6.915,5.38,6.915,1.315-9.1,14.691-4.912c2.684.84,17.75,9.906,16.878,4.27s9.07,6.6,12.376,8.935c14.416,10.162,19.519,22.774,19.519,22.774s-1.206-5.9,1.2-5.636,5.6,1.109,9.639,5.636,6.515,12.472,6.515,12.472,1.655-9.8,5.121-6,8.744,21.2,8.744,21.2,3.043-9.711,9.29-4.284,7.761,22.824,7.761,22.824,2.1-15.119,3.533-17.113,2.184,9.14,2.184,9.14,2.358-2.7,3.421-1.808.831,5.389.831,5.389,3.211-3.075,4.787.458,1.516,13.672,1.516,13.672,2.882-6.344,5.2-1.569,3.794,17.352,3.794,17.352,1.174-2.307,2.1-2.11,1.811,3.32,1.811,3.32,3.855.2,4.9,5.454-3.659,17.489-3.659,17.489,3.814-2.549,5.371-1.306.858,6.276.858,6.276,2.807-1.392,4.314,2.049,1.714,11.716,1.714,11.716,1.951-5.969,4.226-2.594,4.871,16.092,4.871,16.092.672-6.06,1.525-6.568,1.89,4.535,1.89,4.535.98-7.55,4.8-4.535,10.479,16.6,10.479,16.6S292.571,338.673,289.655,322.836Z" transform="translate(472.981 615.456) rotate(180)" fill="#faf0d4"/>
      <path id="Subtraction_4" data-name="Subtraction 4" d="M0,0V0c.181.474,4.513,11.8,11.134,27.8,6.228,15.047,15.829,37.465,26.2,58.811,14.388,29.607,30.237,56.866,37.853,69.966l.006.01,0,.007,0,.007c2.624,4.513,4.207,7.237,4.358,7.7.548,1.687,1,8.51,1.21,18.25.2,9.412.13,19.339-.191,25.907-.435,8.87-3.94,17.936-6.259,23.934v0l0,.008,0,.012c-1.329,3.438-2.289,5.922-2.159,6.971.249,2.018,3.873,5.887,8.888,11.241l.012.013c2.218,2.368,4.732,5.053,7.351,8,8.7,9.807,17.823,19.129,18.767,19.181h.037c.489,0,1.023-.535,1.683-1.683.606-1.056,1.255-2.507,2.007-4.188l0-.008a64.76,64.76,0,0,1,4.673-9.062,78.043,78.043,0,0,1,10.33-12.4l.022.02c1.444,1.25,14.672,12.667,34.154,28.39,12.077,9.748,24.2,19.253,36.026,28.251,14.774,11.241,29.141,21.725,42.7,31.161s28.539,19.373,44.542,29.551c12.792,8.136,26.277,16.449,40.08,24.711,23.048,13.794,39.386,22.878,40.07,23.258.394.161,3.855,1.582,4.031,2.07a.085.085,0,0,1,0,.073c-.029.054-.11.081-.241.081a15.827,15.827,0,0,1-3.354-1.044l-.008,0-.82,4.874.024-.008c.881-.336,8.626-3.321,9.174-4.566.022-.051.053-.12.091-.206,1.435-3.239,2.656-6.219,3.629-8.858,1.873-5.075,2.664-8.43,2.351-9.971-.269-1.326-6.367-6.566-16.468-15.246l0,0-.036-.031,0,0-.006,0c-9.362-8.045-22.184-19.063-36.8-32.521-7.991-7.355-15.766-14.75-23.109-21.98-8.551-8.418-16.837-16.93-24.629-25.3-11.677-12.54-24.3-26.927-37.516-42.761-10.574-12.667-21.566-26.3-32.671-40.527-18.966-24.295-31.7-41.923-31.83-42.1-.4.7-40.375,70.061-41.187,70.771a.226.226,0,0,1-.141.066.152.152,0,0,1-.114-.061c-.492-.566-.183-4.821-.052-5.759.16-1.143,39.435-66.86,39.832-67.523l-.006-.009c-.588-.868-5.985-8.853-14.2-21.61-7.847-12.182-19.794-31.11-32.149-52.1-22.61-38.417-40.1-67.742-42.017-70.959l-.018-.03L70.7,41.7c.011.033,1.349,3.965,2.978,10.049a186.017,186.017,0,0,1,4.674,22.81c.645,4.853,1.508,13.757,1.964,28.618.265,8.666.268,15.567.268,15.856L28.63,18.988,0,0ZM100.748,193.459c.1,0,.164-.065.192-.194.129-.61-2.366-5.278-7.417-13.877-4.023-6.85-9.7-16.244-16.869-27.921-11.248-18.318-22.539-36.332-24.688-39.757l-.023-.036L6.625,10.561,28.763,21.579C30.028,24.142,60,84.831,81.719,125.56a291.815,291.815,0,0,0,16.128,26.215c3.165,4.706,5.256,7.814,5.529,9.1.848,3.983,1.939,13.054,3.094,22.658v.006l.008.062v0l0,.018c1.661,13.812,3.543,29.465,5.154,33.742,1.454,3.864,5.938,9.007,9.895,13.544l.012.014c3.405,3.907,6.346,7.28,6.269,8.673-.047.862-1.7,3.783-4.008,7.1a73.665,73.665,0,0,1-8.812,10.525c-4.942,4.743-7.418,10.9-8.476,13.523-.335.833-.537,1.336-.633,1.339-.5,0-8.74-8.274-15.213-15.618a113.5,113.5,0,0,1-10.386-13.935l0,0a151.968,151.968,0,0,0,13.632-18.842,209.327,209.327,0,0,0,10.8-20.972v-3.826a209.62,209.62,0,0,1-12.531,21.92C86.626,229,79.561,238.56,77.961,238.56a.265.265,0,0,1-.214-.093c-.366-.435.341-3.151,1.41-7.263l0-.012v-.007c1.72-6.617,4.319-16.614,5.194-27.129a213.68,213.68,0,0,0,.537-23.437c-.179-6.331-.533-10.49-.537-10.53,0,0,.014.024.03.05l.006.01.023.037c1.156,1.857,4.194,6.7,7.42,11.589,2.24,3.391,4.106,6.094,5.545,8.034C99.179,192.231,100.312,193.459,100.748,193.459Zm5.709-59.961h0c.726,0,1.136-.149,1.217-.444.142-.517-.951-1.344-3.247-2.456-1.837-.89-4.445-1.964-7.75-3.193-5.456-2.028-11.219-3.871-11.462-3.948l0-.013c-.02-1.469-.229-14.819-1.45-31-.75-9.92-1.727-18.885-2.905-26.647-1.472-9.7-3.265-17.543-5.329-23.306l9.684-8.2.011.023.031.059C86.332,36.413,92.1,47.29,99.887,61.463c7.9,14.386,19.625,35.317,30.575,53.334,15.421,25.375,32.316,48.753,37.868,56.435l0,.007.1.133c1.111,1.538,1.781,2.466,1.85,2.6.294.566-.352,2.719-1.773,5.907a87.744,87.744,0,0,1-4.866,9.285c-2.2,3.63-3.882,5.629-4.722,5.629a.444.444,0,0,1-.192-.041c-.514-.242-5.055-8.195-13.5-23.636-6.731-12.31-15.984-29.457-27.5-50.965C97.867,83.064,78.605,46.706,78.42,46.355a47.011,47.011,0,0,1,1.954,5.951c.351,1.471,20.262,39.71,39.518,76.689l.083.159,0,0,.031.059.013.025c18.358,35.256,35.7,68.557,35.7,69.23,0,.982-1.739,5.7-4.055,10.968-2.633,5.99-4.929,10.293-6.14,11.51a1.006,1.006,0,0,1-.6.369h-.013c-1.308-.062-9.229-5.376-15.013-9.257l-.042-.028,0,0c-3.037-2.037-5.436-3.646-5.777-3.749a9.942,9.942,0,0,0-2.446-.415,1.222,1.222,0,0,0-.956.271.451.451,0,0,0-.066.4c.25,1.058,5.088,3.834,10.689,7.049l1.274.732c5.935,3.413,10.077,6.117,10.809,7.057.39.5-1.235,2.568-3.293,5.185a72.623,72.623,0,0,0-5.242,7.26,41.185,41.185,0,0,0-4.152,8.875s0-.032,0-.074v-.032c.05-1.869.2-8.024,0-8.769a47.376,47.376,0,0,0-4.442-4.651l0,0-.031-.031,0,0-.008-.008c-3.98-3.953-9.431-9.366-10.557-11.528-.518-1-1.863-7.194-5.326-31.073-2.039-14.054-3.885-27.869-3.963-28.45v-.005L87.53,128.163a.459.459,0,0,0,.048.019l.009,0c1.176.426,4.286,1.537,7.764,2.646C102.269,133.035,105.209,133.5,106.457,133.5ZM369.386,416.354a.926.926,0,0,1-.2-.021c-1.059-.217-15.563-8.553-39.02-23.059-12.516-7.74-25.231-15.787-37.791-23.917-14.947-9.674-29.237-19.188-42.474-28.276-26.8-18.4-55.228-39.255-78-57.219-21.776-17.182-34.618-28.768-34.352-30.992.25-2.092,2.422-7.113,6.454-14.925,3.226-6.249,7.643-14.288,13.13-23.895,9.375-16.414,18.669-31.789,18.762-31.942l.02.03c1.137,1.649,11.568,16.719,27.368,37.657,9.751,12.922,19.608,25.517,29.3,37.435C244.7,272.126,256.58,286,267.9,298.461c7.7,8.478,16.174,17.261,25.184,26.1,7.728,7.584,16.088,15.445,24.848,23.363,16.042,14.5,30.618,26.683,41.262,35.578,10.9,9.111,17.479,14.609,17.646,15.874.19,1.439-.458,4.463-1.69,7.892a27.619,27.619,0,0,1-4.112,8.02A2.5,2.5,0,0,1,369.386,416.354Z" transform="translate(420.348 845.615) rotate(180)" fill="#faf0d4"/>
      <path id="Path_877" data-name="Path 877" d="M237.346,4274.6c0-2.97,2.645-8.48,2.645-8.48s-8.319-.25-11.564,1.668-33.71,48.027-32.333,58.748c.537,4.179,26.487,20.475,45.767,46.8,24.9,34,39.772,75.717,44.506,79.254s68.816,19.93,69.644,22.172-40.9,24.023-41.808,34.01S494.868,4728.063,500.2,4729.55s168.833,2.279,171.657,0c1.084-.875-.147-12.255-2.936-29.5C664.5,4672.709,626.18,4542.714,622,4536.211s-43.131-32.191-48.816-37.535-35.7-35.569-35.7-35.569-1.428,32.2,1.92,44.979c2.525,9.632,18.439,28.235,40.806,73.842,7.233,14.749,41.788,99.546,41.788,99.546s-33.639-14.415-38.683-21.582-41.251-77.964-41.251-77.964,1,24.533,3.177,34.778a138.8,138.8,0,0,0,4.9,17.6l-17.863,16.417s-37.4-73.339-74.692-126.619-61.538-87.175-109.97-141-108.445-104.535-108.445-104.535S237.346,4277.571,237.346,4274.6Z" transform="translate(-196.049 -3828.332)" fill="#faf0d4"/>
      <path id="Path_878" data-name="Path 878" d="M740.139,4044.667c-.066.339-1.5-1.69-2.02-1.853s-19.848-.514-30.265-4.868-10.912-10.961-12.076-16.9,3.56-17.328,7.034-22.323,11.259-9.3,13.061-9.775,8.239,1.851,8.808,1.609.956-5.183-1.322-9.47c-.343-.646-.917-3.563-2.265-4.056-.628-.23-3.507-2.611-6.732-4.355-3.3-1.786-6.976-2.975-7.231-3.45-.339-.633,3.492.785,6.935,2.642s6.026,2.521,5.659,1.925a86.245,86.245,0,0,0-6.867-9.635,58.349,58.349,0,0,0-14.131-10.934,1.544,1.544,0,0,0-2.275.462c-.237.275,2.759,1.184,2,2.09s-3.419.993-5.944.238-5.392-4.559-6.973-3.364-7.231,8.017-10.949,15.789-4.073,15.048-4.459,15.012.039-7.776,4.065-16.36,11.658-17.4,12.575-17.688,2.038,3.8,4.419,5.39,6.043.924,6.043,0-1.313-.6-1.229-1.362,4.539-2.731,12.726,4.358,16.8,20.568,17.327,23.025,1.134,10.5.1,11.206-4.924-4.852-12.3-.258-14.09,8.487-15.994,19.912.15,21,10,25.132,29.534,4.944,30.265,5.12S740.206,4044.328,740.139,4044.667Z" transform="translate(-578.938 -3722.101)" fill="#faf0d4"/>
      <path id="Path_879" data-name="Path 879" d="M714.226,3998.332c.71.33-12.969,20.466-4.544,38.79,3.53,7.678,8.13,15.9,15.341,22.569,9.682,8.955,22.94,11.31,22.9,11.936s-11.767-1.255-22.9-10.058c-7.6-6.011-14.709-18.216-18.18-25.766C700.378,4017.556,713.516,3998,714.226,3998.332Z" transform="translate(-610.011 -3738.516)" fill="#faf0d4"/>
    </g>
  </g>
</svg>
