<svg xmlns="http://www.w3.org/2000/svg" width="72.974" height="48.48" viewBox="0 0 72.974 48.48">
  <g id="Path_1410" data-name="Path 1410" transform="translate(0 -2.003)" fill="none">
    <path d="M26.5,2C41.136,2,72.974,26.5,72.974,26.5S41.136,50.483,26.5,50.483,0,41.136,0,26.5,11.864,2,26.5,2Z" stroke="none"/>
    <path d="M 26.5 3.003147125244141 C 19.53058242797852 3.003147125244141 13.11277008056641 5.313346862792969 8.428810119628906 9.508174896240234 C 6.087989807128906 11.60455703735352 4.2596435546875 14.0942268371582 2.994560241699219 16.90805435180664 C 1.671073913574219 19.8517951965332 1 23.07899475097656 1 26.49999618530273 C 1 29.91524505615234 1.670219421386719 33.11357498168945 2.992027282714844 36.00613403320312 C 4.251876831054688 38.76309585571289 6.077278137207031 41.19191741943359 8.417518615722656 43.22512435913086 C 13.06262969970703 47.26081466674805 19.48443984985352 49.48336410522461 26.5 49.48336410522461 C 32.29753875732422 49.48336410522461 42.04533004760742 45.39048767089844 54.68955993652344 37.6472053527832 C 62.26947784423828 33.00528717041016 68.81481170654297 28.31298446655273 71.30329132080078 26.49147987365723 C 68.82093811035156 24.63534545898438 62.26962280273438 19.83731842041016 54.6815299987793 15.09089660644531 C 42.03921127319336 7.183025360107422 32.2942008972168 3.003147125244141 26.5 3.003147125244141 M 26.5 2.003147125244141 C 41.13554000854492 2.003147125244141 72.97412109375 26.49999618530273 72.97412109375 26.49999618530273 C 72.97412109375 26.49999618530273 41.13554000854492 50.48336410522461 26.5 50.48336410522461 C 11.86445236206055 50.48336410522461 0 41.13554382324219 0 26.49999618530273 C 0 11.86445617675781 11.86445236206055 2.003147125244141 26.5 2.003147125244141 Z" stroke="none" fill="#e7b197"/>
  </g>
</svg>
